<svg width="1280" height="632" viewBox="0 0 1280 632" fill="none" xmlns="http://www.w3.org/2000/svg">
<rect x="964" width="316" height="316" fill="#96C2D8"/>
<rect y="316" width="316" height="316" fill="#AADCB9"/>
<rect x="113" y="13" width="200" height="200" rx="100" fill="#D5E126"/>
<rect x="113" y="13" width="200" height="200" rx="100" fill="#1E1F0E" fill-opacity="0.2"/>
<rect x="922" y="418" width="200" height="200" rx="100" fill="#FE4578"/>
<rect x="922" y="418" width="200" height="200" rx="100" fill="#1B1013" fill-opacity="0.23"/>
<path d="M591.667 331L615 316L591.667 301V331ZM600 349.333C595.389 349.333 591.056 348.458 587 346.707C582.944 344.958 579.417 342.583 576.417 339.583C573.417 336.583 571.042 333.055 569.293 329C567.542 324.944 566.667 320.611 566.667 316C566.667 311.389 567.542 307.055 569.293 303C571.042 298.944 573.417 295.417 576.417 292.417C579.417 289.417 582.944 287.041 587 285.29C591.056 283.541 595.389 282.667 600 282.667C604.611 282.667 608.944 283.541 613 285.29C617.056 287.041 620.583 289.417 623.583 292.417C626.583 295.417 628.958 298.944 630.707 303C632.458 307.055 633.333 311.389 633.333 316C633.333 320.611 632.458 324.944 630.707 329C628.958 333.055 626.583 336.583 623.583 339.583C620.583 342.583 617.056 344.958 613 346.707C608.944 348.458 604.611 349.333 600 349.333ZM600 342.667C607.444 342.667 613.75 340.083 618.917 334.917C624.083 329.75 626.667 323.444 626.667 316C626.667 308.555 624.083 302.25 618.917 297.083C613.75 291.917 607.444 289.333 600 289.333C592.556 289.333 586.25 291.917 581.083 297.083C575.917 302.25 573.333 308.555 573.333 316C573.333 323.444 575.917 329.75 581.083 334.917C586.25 340.083 592.556 342.667 600 342.667Z" fill="white"/>
</svg>
